<mxfile host="app.diagrams.net" modified="2023-10-26T01:10:45.230Z" agent="Mozilla/5.0 (Windows NT 10.0; Win64; x64; rv:109.0) Gecko/20100101 Firefox/118.0" etag="F8ShPAlf5hkx6tuMSJ9R" version="22.0.8" type="device">
  <diagram name="Page-1" id="p3iGb6jUMtRxaxwTmNCn">
    <mxGraphModel dx="1434" dy="716" grid="1" gridSize="10" guides="1" tooltips="1" connect="1" arrows="1" fold="1" page="1" pageScale="1" pageWidth="1100" pageHeight="850" math="0" shadow="0">
      <root>
        <mxCell id="0" />
        <mxCell id="1" parent="0" />
        <mxCell id="mNQ592gwxUFzMcCzDSCU-44" value="" style="rounded=1;whiteSpace=wrap;html=1;fillColor=#e1d5e7;strokeColor=#9673a6;" vertex="1" parent="1">
          <mxGeometry x="38" y="88" width="420" height="660" as="geometry" />
        </mxCell>
        <mxCell id="mNQ592gwxUFzMcCzDSCU-12" value="&lt;b style=&quot;font-size: 13px;&quot;&gt;Any open port 1-30&lt;br style=&quot;font-size: 13px;&quot;&gt;&lt;/b&gt;" style="text;html=1;strokeColor=none;fillColor=none;align=center;verticalAlign=middle;whiteSpace=wrap;rounded=0;labelBackgroundColor=none;fontColor=default;fontSize=13;" vertex="1" parent="1">
          <mxGeometry x="408" y="648" width="95" height="30" as="geometry" />
        </mxCell>
        <mxCell id="mNQ592gwxUFzMcCzDSCU-3" value="&lt;font size=&quot;1&quot;&gt;&lt;b&gt;&lt;font style=&quot;font-size: 17px;&quot;&gt;Netlab Cloud&lt;/font&gt;&lt;/b&gt;&lt;/font&gt;" style="image;aspect=fixed;perimeter=ellipsePerimeter;html=1;align=center;shadow=0;dashed=0;spacingTop=3;image=img/lib/active_directory/internet_cloud.svg;" vertex="1" parent="1">
          <mxGeometry x="728" y="378" width="361.45" height="227.71" as="geometry" />
        </mxCell>
        <mxCell id="mNQ592gwxUFzMcCzDSCU-2" value="&lt;b&gt;&lt;font style=&quot;font-size: 14px;&quot;&gt;Asterisk Server&lt;/font&gt;&lt;/b&gt;" style="sketch=0;pointerEvents=1;shadow=0;dashed=0;html=1;strokeColor=none;fillColor=#505050;labelPosition=center;verticalLabelPosition=bottom;verticalAlign=top;outlineConnect=0;align=center;shape=mxgraph.office.servers.application_server_blue;" vertex="1" parent="1">
          <mxGeometry x="881.76" y="438" width="73.93" height="90" as="geometry" />
        </mxCell>
        <mxCell id="mNQ592gwxUFzMcCzDSCU-4" value="&lt;b style=&quot;font-size: 17px;&quot;&gt;ITCnet (and Internet)&lt;br&gt;172.17.0.0/16&lt;/b&gt;" style="image;aspect=fixed;perimeter=ellipsePerimeter;html=1;align=center;shadow=0;dashed=0;spacingTop=-124;image=img/lib/active_directory/internet_cloud.svg;labelBackgroundColor=none;" vertex="1" parent="1">
          <mxGeometry x="738" y="68.00000000000001" width="301.59" height="190" as="geometry" />
        </mxCell>
        <mxCell id="mNQ592gwxUFzMcCzDSCU-5" value="" style="endArrow=none;html=1;rounded=0;strokeWidth=3;" edge="1" parent="1" source="mNQ592gwxUFzMcCzDSCU-2" target="mNQ592gwxUFzMcCzDSCU-4">
          <mxGeometry width="50" height="50" relative="1" as="geometry">
            <mxPoint x="508" y="338" as="sourcePoint" />
            <mxPoint x="558" y="288" as="targetPoint" />
          </mxGeometry>
        </mxCell>
        <mxCell id="mNQ592gwxUFzMcCzDSCU-6" value="&lt;b&gt;&lt;font style=&quot;font-size: 13px;&quot;&gt;ens192&lt;/font&gt;&lt;/b&gt; (outside)" style="text;html=1;strokeColor=none;fillColor=none;align=center;verticalAlign=middle;whiteSpace=wrap;rounded=0;rotation=266;" vertex="1" parent="1">
          <mxGeometry x="897.69" y="393" width="60" height="30" as="geometry" />
        </mxCell>
        <mxCell id="mNQ592gwxUFzMcCzDSCU-7" value="&lt;b style=&quot;font-size: 17px;&quot;&gt;&lt;font style=&quot;font-size: 17px;&quot;&gt;B144 Classroom Switch&lt;/font&gt;&lt;/b&gt;" style="image;points=[];aspect=fixed;html=1;align=center;shadow=0;dashed=0;image=img/lib/allied_telesis/switch/Switch_48_port_L3.svg;fontSize=17;" vertex="1" parent="1">
          <mxGeometry x="498" y="598" width="130" height="88" as="geometry" />
        </mxCell>
        <mxCell id="mNQ592gwxUFzMcCzDSCU-8" value="" style="endArrow=none;html=1;rounded=0;strokeWidth=3;" edge="1" parent="1" source="mNQ592gwxUFzMcCzDSCU-2" target="mNQ592gwxUFzMcCzDSCU-7">
          <mxGeometry width="50" height="50" relative="1" as="geometry">
            <mxPoint x="924" y="448" as="sourcePoint" />
            <mxPoint x="907" y="268" as="targetPoint" />
          </mxGeometry>
        </mxCell>
        <mxCell id="mNQ592gwxUFzMcCzDSCU-9" value="&lt;b&gt;&lt;font style=&quot;font-size: 13px;&quot;&gt;ens224&lt;/font&gt;&lt;/b&gt; (inside)" style="text;html=1;strokeColor=none;fillColor=none;align=center;verticalAlign=middle;whiteSpace=wrap;rounded=0;rotation=336;" vertex="1" parent="1">
          <mxGeometry x="821.76" y="480" width="60" height="30" as="geometry" />
        </mxCell>
        <mxCell id="mNQ592gwxUFzMcCzDSCU-10" value="&lt;b style=&quot;font-size: 15px;&quot;&gt;&lt;font style=&quot;font-size: 15px;&quot;&gt;2800 Router&lt;/font&gt;&lt;/b&gt;" style="sketch=0;points=[[0.5,0,0],[1,0.5,0],[0.5,1,0],[0,0.5,0],[0.145,0.145,0],[0.8555,0.145,0],[0.855,0.8555,0],[0.145,0.855,0]];verticalLabelPosition=bottom;html=1;verticalAlign=top;aspect=fixed;align=center;pointerEvents=1;shape=mxgraph.cisco19.rect;prIcon=router;fillColor=#FAFAFA;strokeColor=#005073;direction=south;fontSize=15;" vertex="1" parent="1">
          <mxGeometry x="158" y="602" width="80" height="80" as="geometry" />
        </mxCell>
        <mxCell id="mNQ592gwxUFzMcCzDSCU-11" value="" style="endArrow=none;html=1;rounded=0;strokeWidth=3;" edge="1" parent="1" source="mNQ592gwxUFzMcCzDSCU-7" target="mNQ592gwxUFzMcCzDSCU-10">
          <mxGeometry width="50" height="50" relative="1" as="geometry">
            <mxPoint x="512" y="797" as="sourcePoint" />
            <mxPoint x="258" y="668" as="targetPoint" />
          </mxGeometry>
        </mxCell>
        <mxCell id="mNQ592gwxUFzMcCzDSCU-14" value="&lt;div style=&quot;font-size: 13px;&quot;&gt;&lt;b style=&quot;font-size: 13px;&quot;&gt;Fa0/0&lt;/b&gt;&lt;/div&gt;" style="text;html=1;strokeColor=none;fillColor=none;align=center;verticalAlign=middle;whiteSpace=wrap;rounded=0;labelBackgroundColor=none;fontColor=default;fontSize=13;" vertex="1" parent="1">
          <mxGeometry x="238" y="618" width="40" height="30" as="geometry" />
        </mxCell>
        <mxCell id="mNQ592gwxUFzMcCzDSCU-16" value="&lt;b&gt;&lt;font style=&quot;font-size: 15px;&quot;&gt;3650 Switch&lt;/font&gt;&lt;/b&gt;" style="sketch=0;points=[[0.015,0.015,0],[0.985,0.015,0],[0.985,0.985,0],[0.015,0.985,0],[0.25,0,0],[0.5,0,0],[0.75,0,0],[1,0.25,0],[1,0.5,0],[1,0.75,0],[0.75,1,0],[0.5,1,0],[0.25,1,0],[0,0.75,0],[0,0.5,0],[0,0.25,0]];verticalLabelPosition=bottom;html=1;verticalAlign=top;aspect=fixed;align=center;pointerEvents=1;shape=mxgraph.cisco19.rect;prIcon=l3_switch;fillColor=#FAFAFA;strokeColor=#005073;" vertex="1" parent="1">
          <mxGeometry x="188" y="368" width="80" height="80" as="geometry" />
        </mxCell>
        <mxCell id="mNQ592gwxUFzMcCzDSCU-17" value="" style="endArrow=none;html=1;rounded=0;strokeWidth=3;" edge="1" parent="1" source="mNQ592gwxUFzMcCzDSCU-10" target="mNQ592gwxUFzMcCzDSCU-16">
          <mxGeometry width="50" height="50" relative="1" as="geometry">
            <mxPoint x="508" y="652" as="sourcePoint" />
            <mxPoint x="248" y="652" as="targetPoint" />
          </mxGeometry>
        </mxCell>
        <mxCell id="mNQ592gwxUFzMcCzDSCU-18" value="&lt;div style=&quot;font-size: 13px;&quot;&gt;&lt;b style=&quot;font-size: 13px;&quot;&gt;Fa0/1&lt;/b&gt;&lt;/div&gt;" style="text;html=1;strokeColor=none;fillColor=none;align=center;verticalAlign=middle;whiteSpace=wrap;rounded=0;labelBackgroundColor=none;fontColor=default;fontSize=13;rotation=280;" vertex="1" parent="1">
          <mxGeometry x="174" y="567" width="40" height="30" as="geometry" />
        </mxCell>
        <mxCell id="mNQ592gwxUFzMcCzDSCU-20" value="&lt;b style=&quot;font-size: 13px;&quot;&gt;Gi1/0/24&lt;/b&gt;" style="text;html=1;strokeColor=none;fillColor=none;align=center;verticalAlign=middle;whiteSpace=wrap;rounded=0;labelBackgroundColor=none;fontColor=default;fontSize=13;rotation=98;" vertex="1" parent="1">
          <mxGeometry x="208" y="488" width="40" height="30" as="geometry" />
        </mxCell>
        <mxCell id="mNQ592gwxUFzMcCzDSCU-22" value="" style="endArrow=none;html=1;rounded=0;strokeWidth=3;" edge="1" parent="1" source="mNQ592gwxUFzMcCzDSCU-4" target="mNQ592gwxUFzMcCzDSCU-7">
          <mxGeometry width="50" height="50" relative="1" as="geometry">
            <mxPoint x="892" y="510" as="sourcePoint" />
            <mxPoint x="638" y="623" as="targetPoint" />
          </mxGeometry>
        </mxCell>
        <mxCell id="mNQ592gwxUFzMcCzDSCU-24" value="" style="endArrow=none;html=1;rounded=0;strokeWidth=3;exitX=1;exitY=0.5;exitDx=0;exitDy=0;exitPerimeter=0;" edge="1" parent="1" source="mNQ592gwxUFzMcCzDSCU-16" target="mNQ592gwxUFzMcCzDSCU-7">
          <mxGeometry width="50" height="50" relative="1" as="geometry">
            <mxPoint x="213" y="612" as="sourcePoint" />
            <mxPoint x="233" y="458" as="targetPoint" />
          </mxGeometry>
        </mxCell>
        <mxCell id="mNQ592gwxUFzMcCzDSCU-25" value="&lt;b style=&quot;font-size: 13px;&quot;&gt;Gi1/0/23&lt;/b&gt;" style="text;html=1;strokeColor=none;fillColor=none;align=center;verticalAlign=middle;whiteSpace=wrap;rounded=0;labelBackgroundColor=none;fontColor=default;fontSize=13;rotation=39;" vertex="1" parent="1">
          <mxGeometry x="278" y="402" width="40" height="30" as="geometry" />
        </mxCell>
        <mxCell id="mNQ592gwxUFzMcCzDSCU-26" value="&lt;b&gt;Port 31-40 Depending on Pod ID&lt;br&gt;&lt;/b&gt;" style="text;html=1;strokeColor=none;fillColor=none;align=center;verticalAlign=middle;whiteSpace=wrap;rounded=0;labelBackgroundColor=none;fontColor=default;fontSize=13;rotation=39;" vertex="1" parent="1">
          <mxGeometry x="408" y="538" width="150" height="30" as="geometry" />
        </mxCell>
        <mxCell id="mNQ592gwxUFzMcCzDSCU-28" value="&lt;b&gt;172.17.144.0/24&lt;/b&gt;" style="text;html=1;strokeColor=none;fillColor=none;align=center;verticalAlign=middle;whiteSpace=wrap;rounded=0;labelBackgroundColor=none;fontColor=default;fontSize=13;" vertex="1" parent="1">
          <mxGeometry x="316" y="615" width="95" height="30" as="geometry" />
        </mxCell>
        <mxCell id="mNQ592gwxUFzMcCzDSCU-29" value="&lt;div&gt;&lt;b&gt;192.168.10.0/24&lt;/b&gt;&lt;/div&gt;" style="text;html=1;strokeColor=none;fillColor=none;align=center;verticalAlign=middle;whiteSpace=wrap;rounded=0;labelBackgroundColor=none;fontColor=default;fontSize=13;rotation=39;" vertex="1" parent="1">
          <mxGeometry x="318" y="488" width="95" height="30" as="geometry" />
        </mxCell>
        <mxCell id="mNQ592gwxUFzMcCzDSCU-32" value="&lt;div&gt;&lt;b&gt;192.168.10.0/24&lt;/b&gt;&lt;/div&gt;" style="text;html=1;strokeColor=none;fillColor=none;align=center;verticalAlign=middle;whiteSpace=wrap;rounded=0;labelBackgroundColor=none;fontColor=default;fontSize=13;rotation=0;" vertex="1" parent="1">
          <mxGeometry x="113" y="515" width="95" height="30" as="geometry" />
        </mxCell>
        <mxCell id="mNQ592gwxUFzMcCzDSCU-33" value="" style="fontColor=#0066CC;verticalAlign=top;verticalLabelPosition=bottom;labelPosition=center;align=center;html=1;outlineConnect=0;fillColor=#CCCCCC;strokeColor=#6881B3;gradientColor=none;gradientDirection=north;strokeWidth=2;shape=mxgraph.networks.pc;" vertex="1" parent="1">
          <mxGeometry x="74" y="178" width="100" height="70" as="geometry" />
        </mxCell>
        <mxCell id="mNQ592gwxUFzMcCzDSCU-34" value="" style="endArrow=none;html=1;rounded=0;strokeWidth=3;" edge="1" parent="1" source="mNQ592gwxUFzMcCzDSCU-16" target="mNQ592gwxUFzMcCzDSCU-33">
          <mxGeometry width="50" height="50" relative="1" as="geometry">
            <mxPoint x="278" y="418" as="sourcePoint" />
            <mxPoint x="518" y="608" as="targetPoint" />
          </mxGeometry>
        </mxCell>
        <mxCell id="mNQ592gwxUFzMcCzDSCU-35" value="&lt;b style=&quot;font-size: 13px;&quot;&gt;Gi1/0/1&lt;/b&gt;" style="text;html=1;strokeColor=none;fillColor=none;align=center;verticalAlign=middle;whiteSpace=wrap;rounded=0;labelBackgroundColor=none;fontColor=default;fontSize=13;rotation=59;" vertex="1" parent="1">
          <mxGeometry x="158" y="328" width="40" height="30" as="geometry" />
        </mxCell>
        <mxCell id="mNQ592gwxUFzMcCzDSCU-36" value="(outside)" style="text;html=1;strokeColor=none;fillColor=none;align=center;verticalAlign=middle;whiteSpace=wrap;rounded=0;labelBackgroundColor=none;fontColor=default;fontSize=13;" vertex="1" parent="1">
          <mxGeometry x="246" y="637" width="40" height="30" as="geometry" />
        </mxCell>
        <mxCell id="mNQ592gwxUFzMcCzDSCU-37" value="(inside)" style="text;html=1;strokeColor=none;fillColor=none;align=center;verticalAlign=middle;whiteSpace=wrap;rounded=0;labelBackgroundColor=none;fontColor=default;fontSize=13;rotation=280;" vertex="1" parent="1">
          <mxGeometry x="196" y="566" width="40" height="30" as="geometry" />
        </mxCell>
        <mxCell id="mNQ592gwxUFzMcCzDSCU-38" value="" style="points=[[0.59,0,0],[0.87,0.015,0],[0.88,0.3,0],[0.99,0.99,0],[0.5,1,0],[0.01,0.99,0],[0.075,0.5,0],[0.17,0.115,0]];verticalLabelPosition=bottom;sketch=0;html=1;verticalAlign=top;aspect=fixed;align=center;pointerEvents=1;shape=mxgraph.cisco19.ip_phone;fillColor=#005073;strokeColor=none;" vertex="1" parent="1">
          <mxGeometry x="223.63" y="188.22" width="68.75" height="59.78" as="geometry" />
        </mxCell>
        <mxCell id="mNQ592gwxUFzMcCzDSCU-39" value="" style="points=[[0.59,0,0],[0.87,0.015,0],[0.88,0.3,0],[0.99,0.99,0],[0.5,1,0],[0.01,0.99,0],[0.075,0.5,0],[0.17,0.115,0]];verticalLabelPosition=bottom;sketch=0;html=1;verticalAlign=top;aspect=fixed;align=center;pointerEvents=1;shape=mxgraph.cisco19.ip_phone;fillColor=#005073;strokeColor=none;" vertex="1" parent="1">
          <mxGeometry x="317.63" y="191.22" width="68.75" height="59.78" as="geometry" />
        </mxCell>
        <mxCell id="mNQ592gwxUFzMcCzDSCU-40" value="" style="endArrow=none;html=1;rounded=0;strokeWidth=3;entryX=0.587;entryY=0.816;entryDx=0;entryDy=0;entryPerimeter=0;" edge="1" parent="1" source="mNQ592gwxUFzMcCzDSCU-16" target="mNQ592gwxUFzMcCzDSCU-38">
          <mxGeometry width="50" height="50" relative="1" as="geometry">
            <mxPoint x="217" y="378" as="sourcePoint" />
            <mxPoint x="153" y="258" as="targetPoint" />
          </mxGeometry>
        </mxCell>
        <mxCell id="mNQ592gwxUFzMcCzDSCU-41" value="" style="endArrow=none;html=1;rounded=0;strokeWidth=3;entryX=0.514;entryY=0.565;entryDx=0;entryDy=0;entryPerimeter=0;" edge="1" parent="1" source="mNQ592gwxUFzMcCzDSCU-16" target="mNQ592gwxUFzMcCzDSCU-39">
          <mxGeometry width="50" height="50" relative="1" as="geometry">
            <mxPoint x="246" y="378" as="sourcePoint" />
            <mxPoint x="274" y="247" as="targetPoint" />
          </mxGeometry>
        </mxCell>
        <mxCell id="mNQ592gwxUFzMcCzDSCU-42" value="&lt;b style=&quot;font-size: 13px;&quot;&gt;Gi1/0/2&lt;/b&gt;" style="text;html=1;strokeColor=none;fillColor=none;align=center;verticalAlign=middle;whiteSpace=wrap;rounded=0;labelBackgroundColor=none;fontColor=default;fontSize=13;rotation=282;" vertex="1" parent="1">
          <mxGeometry x="210" y="328" width="40" height="30" as="geometry" />
        </mxCell>
        <mxCell id="mNQ592gwxUFzMcCzDSCU-43" value="&lt;b style=&quot;font-size: 13px;&quot;&gt;Gi1/0/3&lt;/b&gt;" style="text;html=1;strokeColor=none;fillColor=none;align=center;verticalAlign=middle;whiteSpace=wrap;rounded=0;labelBackgroundColor=none;fontColor=default;fontSize=13;rotation=302;" vertex="1" parent="1">
          <mxGeometry x="262" y="335" width="40" height="30" as="geometry" />
        </mxCell>
        <mxCell id="mNQ592gwxUFzMcCzDSCU-45" value="&lt;b&gt;&lt;font style=&quot;font-size: 22px;&quot;&gt;Your B144 Pod&lt;/font&gt;&lt;/b&gt;" style="text;html=1;strokeColor=none;fillColor=none;align=center;verticalAlign=middle;whiteSpace=wrap;rounded=0;" vertex="1" parent="1">
          <mxGeometry x="246" y="98" width="174" height="30" as="geometry" />
        </mxCell>
        <mxCell id="mNQ592gwxUFzMcCzDSCU-46" value="ITC-2300 Basic Asterisk Topology" style="text;html=1;strokeColor=none;fillColor=none;align=center;verticalAlign=middle;whiteSpace=wrap;rounded=0;fontStyle=1;fontSize=34;" vertex="1" parent="1">
          <mxGeometry x="500" y="10" width="590" height="30" as="geometry" />
        </mxCell>
        <mxCell id="mNQ592gwxUFzMcCzDSCU-47" value="&lt;div&gt;&lt;b&gt;172.17.219.0/24&lt;/b&gt;&lt;/div&gt;" style="text;html=1;strokeColor=none;fillColor=none;align=center;verticalAlign=middle;whiteSpace=wrap;rounded=0;labelBackgroundColor=none;fontColor=default;fontSize=13;rotation=265;" vertex="1" parent="1">
          <mxGeometry x="845.3" y="338" width="95" height="30" as="geometry" />
        </mxCell>
        <mxCell id="mNQ592gwxUFzMcCzDSCU-49" value="&lt;div&gt;&lt;b&gt;192.168.10.0/24&lt;/b&gt;&lt;/div&gt;" style="text;html=1;strokeColor=none;fillColor=none;align=center;verticalAlign=middle;whiteSpace=wrap;rounded=0;labelBackgroundColor=none;fontColor=default;fontSize=13;rotation=336;" vertex="1" parent="1">
          <mxGeometry x="717" y="558" width="95" height="30" as="geometry" />
        </mxCell>
        <mxCell id="mNQ592gwxUFzMcCzDSCU-50" value="&lt;b&gt;172.17.144.0/24&lt;/b&gt;" style="text;html=1;strokeColor=none;fillColor=none;align=center;verticalAlign=middle;whiteSpace=wrap;rounded=0;labelBackgroundColor=none;fontColor=default;fontSize=13;rotation=-55;" vertex="1" parent="1">
          <mxGeometry x="636" y="425" width="95" height="30" as="geometry" />
        </mxCell>
      </root>
    </mxGraphModel>
  </diagram>
</mxfile>
